<?xml version="1.0" encoding="utf-8"?>
<!-- Generator: Adobe Illustrator 24.0.0, SVG Export Plug-In . SVG Version: 6.00 Build 0)  -->
<svg version="1.1" xmlns="http://www.w3.org/2000/svg" xmlns:xlink="http://www.w3.org/1999/xlink" x="0px" y="0px"
	 viewBox="0 0 988.6 430.6" style="enable-background:new 0 0 988.6 430.6;" xml:space="preserve">
<style type="text/css">
	.st0{fill:#010101;}
	.st1{fill:none;}
	.st2{font-family:'IBMPlexSans-Text';}
	.st3{font-size:48px;}
	.st4{display:none;}
	.st5{display:inline;opacity:0.5;fill:#66489D;enable-background:new    ;}
	.st6{display:inline;fill:none;stroke:#231F20;stroke-miterlimit:10;}
	.st7{display:inline;fill:#010101;}
</style>
<g id="Layer_1">
	<rect x="485.4" y="148.6" class="st0" width="10" height="108.8"/>
	<rect x="530.3" y="148.9" class="st1" width="283.4" height="108.8"/>
	<text transform="matrix(1 0 0 1 530.3013 189.6234)"><tspan x="0" y="0" class="st2 st3">Hackathon</tspan><tspan x="0" y="56" class="st2 st3">Melbourne</tspan></text>
	<g id="Layer_1_1_">
		<path class="st0" d="M222.3,257.3h-11.6c-9.1,0-13.3-5-13.3-13v-6.2c-18.3-2.3-29.8-16.8-29.8-41.8c0-27.5,13.9-42.2,35.2-42.2
			s35.2,14.7,35.2,42.2c0,24.3-10.9,38.7-28.2,41.6v8.4H222L222.3,257.3z M223.8,202.8v-12.8c0-14.9-8.4-24-21-24s-21,9.1-21,24
			v12.9c0,14.8,8.4,24,21,24S223.8,217.6,223.8,202.8L223.8,202.8z"/>
		<path class="st0" d="M247.3,161.2v-2c0-3.9,2.3-6.7,7.6-6.7s7.5,2.8,7.5,6.7v2c0,3.9-2.2,6.7-7.5,6.7
			C249.6,167.9,247.3,165.1,247.3,161.2z"/>
		<rect x="248.5" y="176.4" class="st0" width="12.7" height="60.8"/>
		<path class="st0" d="M271.8,227.1l8.2-7.5c4.4,5.4,9.9,8.6,17.2,8.6s11.1-3,11.1-8.2c0-3.9-2.3-6.8-8.6-7.6l-5.6-0.7
			c-12.4-1.5-20-6.9-20-18.1c0-11.8,9.2-18.7,22.6-18.7c11,0,17.2,3.6,22.7,9.7l-7.8,7.5c-3.7-4.4-9.1-6.9-14.8-6.9
			c-7,0-10.3,3-10.3,7.6s2.9,6.8,9.3,7.8l5.6,0.7c13.3,2,19.3,7.8,19.3,17.6c0,11.7-9.5,19.5-24.1,19.5
			C285.1,238.5,277.6,234.2,271.8,227.1z"/>
		<path class="st0" d="M329.2,150.7H342v53.1h0.6l8.4-10.9l14.6-16.5h14.9l-21.3,23.5l23.9,37.3h-15.2l-17.4-29l-8.4,9.1v19.9h-12.7
			V150.7z"/>
		<path class="st0" d="M391.8,161.2v-2c0-3.9,2.3-6.7,7.6-6.7s7.5,2.8,7.5,6.7v2c0,3.9-2.2,6.7-7.5,6.7S391.8,165.1,391.8,161.2z"/>
		<rect x="393" y="176.4" class="st0" width="12.7" height="60.8"/>
		<path class="st0" d="M439.3,237.1c-8.8,0-13.4-4.9-13.4-13.2v-37.2h-9.5v-10.4h5.1c4.2,0,5.6-1.8,5.6-6v-10.6h11.5v16.6h12.7v10.4
			h-12.7v40h11.8v10.4L439.3,237.1z"/>
	</g>
</g>
<g id="clearspace" class="st4">
	<rect x="450.6" y="113.7" class="st5" width="34.9" height="178.7"/>
	<rect x="495.4" y="113.7" class="st5" width="34.9" height="178.7"/>
	<rect x="813.5" y="113.7" class="st5" width="34.9" height="178.7"/>
	<rect x="132.6" y="113.8" class="st5" width="34.9" height="178.7"/>
	<rect x="132.7" y="113.7" class="st5" width="715.5" height="34.9"/>
	<rect x="132.6" y="257.3" class="st5" width="715.5" height="34.9"/>
	<line class="st6" x1="167.6" y1="105.7" x2="167.6" y2="82.9"/>
	<line class="st6" x1="132.6" y1="105.7" x2="132.6" y2="82.9"/>
	<line class="st6" x1="122.6" y1="113.7" x2="99.8" y2="113.7"/>
	<line class="st6" x1="122.6" y1="148.7" x2="99.8" y2="148.7"/>
	<line class="st6" x1="122.6" y1="257.3" x2="99.8" y2="257.3"/>
	<line class="st6" x1="122.6" y1="292.3" x2="99.8" y2="292.3"/>
	<line class="st6" x1="132.6" y1="302.3" x2="132.6" y2="325.1"/>
	<line class="st6" x1="167.6" y1="302.3" x2="167.6" y2="325.1"/>
	<path class="st7" d="M147.3,98.5l2.3-3.1l-2.2-3.1h1.1l1.5,2.3l0,0l1.6-2.3h1.1l-2.2,3l2.2,3.2h-1.1l-1.6-2.4l0,0l-1.8,2.4H147.3z"
		/>
	<path class="st7" d="M147.3,316.8l2.3-3.1l-2.2-3.1h1.1l1.6,2.3l0,0l1.6-2.3h1.1l-2.2,3l2.2,3.2h-1.1l-1.6-2.4l0,0l-1.7,2.4
		L147.3,316.8z"/>
	<path class="st7" d="M108.4,134.3l2.3-3.1l-2.2-3.1h1.1l1.6,2.3l0,0l1.6-2.3h1.1l-2.2,3l2.3,3.2h-1.1l-1.6-2.4l0,0l-1.8,2.4H108.4z
		"/>
	<path class="st7" d="M108.4,277.9l2.3-3.1l-2.2-3.1h1.1l1.6,2.3l0,0l1.6-2.3h1.1l-2.2,3l2.2,3.2h-1.1l-1.6-2.4l0,0l-1.7,2.4H108.4z
		"/>
	<line class="st6" x1="450.6" y1="302.3" x2="450.6" y2="325.1"/>
	<line class="st6" x1="485.6" y1="302.3" x2="485.6" y2="325.1"/>
	<line class="st6" x1="855" y1="292.3" x2="877.8" y2="292.3"/>
	<line class="st6" x1="855" y1="257.3" x2="877.8" y2="257.3"/>
	<line class="st6" x1="855" y1="148.7" x2="877.9" y2="148.7"/>
	<line class="st6" x1="855" y1="113.8" x2="877.9" y2="113.8"/>
	<line class="st6" x1="485.5" y1="105.8" x2="485.5" y2="83"/>
	<line class="st6" x1="450.6" y1="105.8" x2="450.6" y2="83"/>
	<path class="st7" d="M465.3,98.6l2.3-3.1l-2.2-3.1h1.1l1.5,2.3l0,0l1.6-2.3h1.1l-2.2,3l2.2,3.2h-1.1l-1.6-2.4l0,0l-1.7,2.4H465.3z"
		/>
	<path class="st7" d="M465.3,316.8l2.3-3.1l-2.2-3.1h1.1l1.6,2.3l0,0l1.6-2.3h1.1l-2.2,3l2.2,3.2h-1.1l-1.6-2.4l0,0l-1.7,2.4H465.3z
		"/>
	<path class="st7" d="M863.7,134.4l2.3-3.1l-2.2-3.1h1.1l1.6,2.3l0,0l1.6-2.3h1.1l-2.2,3l2.2,3.2h-1.1l-1.6-2.4l0,0l-1.7,2.4
		L863.7,134.4z"/>
	<path class="st7" d="M863.6,277.9l2.3-3.1l-2.2-3.1h1.1l1.6,2.3l0,0l1.6-2.3h1.1l-2.2,3l2.2,3.2h-1.1l-1.6-2.4l0,0l-1.7,2.4H863.6z
		"/>
</g>
</svg>
